<svg width="44" height="44" viewBox="0 0 44 44" fill="none" xmlns="http://www.w3.org/2000/svg">
<path d="M8.99788 16.4557C8.97557 16.0846 8.86242 15.8347 8.59766 15.5867C7.29842 14.5969 5.1479 14.9388 4.0092 16.0203C3.38256 16.7368 3.0914 17.7881 3.06414 18.7471L3.06256 18.8945C3.0589 19.1555 3.08319 19.3918 3.14642 19.6458C3.40866 20.2167 3.98151 20.5468 4.50257 20.8037L4.7094 20.9014L5.12356 21.1035L5.30616 21.1906L5.46828 21.269C5.60815 21.3276 5.60815 21.3276 5.71863 21.4011C5.78793 21.5946 5.78793 21.5946 5.79613 21.788L5.79625 21.7938C5.80549 22.2314 5.8141 22.639 5.53087 22.9869C5.30957 23.171 5.1373 23.2069 4.8567 23.2025L4.72896 23.1975C4.57892 23.1944 4.42911 23.1905 4.27911 23.1851C4.27075 22.9634 4.27452 22.7473 4.27911 22.5244L4.40429 21.7315H2.27631C2.0849 22.1356 2.03342 22.6721 2.00493 23.1221C1.99358 23.581 1.97643 24.0141 2.27631 24.3744C2.79957 24.8836 3.49256 24.9921 4.18133 25L4.38473 24.998C4.96276 24.9943 5.51075 24.9573 6.06677 24.7838C6.79079 24.518 7.35733 24.0347 7.72144 23.3172C8.10908 22.4325 8.44035 21.2839 8.15564 20.315C7.92622 19.8175 7.53699 19.5617 7.07356 19.3375C6.51381 19.0775 5.87492 18.836 5.46437 18.337C5.36472 18.0424 5.3594 17.787 5.44896 17.4927C5.5819 17.1774 5.72608 16.9881 6.03157 16.842C6.32975 16.8 6.52854 16.7954 6.78262 16.9742C6.79807 17.1904 6.79152 17.3844 6.75524 17.5978C6.72003 17.7671 6.72003 17.7671 6.65745 18.2957H8.78543L8.83907 17.8992L8.84801 17.8331L8.86053 17.8398L8.9106 17.701C8.98551 17.286 9.00748 16.8774 8.99788 16.4557Z" fill="#030303"/>
<path d="M22.2174 15C23.1816 15 24.1457 15 25.1391 15C25.0353 15.5259 24.9284 16.0507 24.8196 16.5753C24.8103 16.6199 24.8011 16.6645 24.7916 16.7105C24.6914 17.1941 24.5904 17.6774 24.4864 18.16C24.4701 18.2359 24.4538 18.3118 24.4369 18.39C24.4065 18.531 24.3759 18.6719 24.345 18.8127C24.2501 19.2517 24.1719 19.6917 24.1043 20.137C24.6159 19.4701 24.6159 19.4701 25.1163 18.7928C25.1577 18.7372 25.1991 18.6815 25.2417 18.6242C25.3856 18.4271 25.3856 18.4271 25.5051 18.2107C25.845 17.6579 25.845 17.6579 26.1057 17.5596C26.4147 17.5013 26.7228 17.5275 27.0337 17.5514C27.1277 17.5555 27.2217 17.5592 27.3157 17.5626C27.5441 17.5716 27.7719 17.5857 28 17.6027C27.5402 18.2092 27.0635 18.7968 26.5804 19.3798C26.3663 19.6386 26.1555 19.8997 25.953 20.1702C25.8696 20.274 25.8696 20.274 25.7174 20.4024C25.5849 20.6136 25.6136 20.7585 25.6458 21.0095C25.7072 21.3428 25.7846 21.6705 25.8644 21.9987C25.9864 22.5015 26.0893 23.0078 26.1868 23.5172C26.2537 23.8596 26.3337 24.1859 26.4434 24.5142C26.4783 24.6575 26.4783 24.6575 26.4783 25C25.7752 25 25.0722 25 24.3478 25C24.0767 23.576 24.0767 23.576 23.8 22.1233C23.5859 22.3642 23.5536 22.5606 23.4952 22.881C23.4848 22.9349 23.4744 22.9889 23.4636 23.0445C23.4306 23.2167 23.3984 23.3892 23.3663 23.5616C23.3336 23.7341 23.3006 23.9064 23.2677 24.0788C23.2472 24.186 23.227 24.2933 23.2069 24.4006C23.1685 24.6047 23.1283 24.8019 23.0696 25C22.3866 25 21.7037 25 21 25C21.0383 24.5692 21.0756 24.1932 21.1584 23.7786C21.1679 23.7302 21.1775 23.6819 21.1874 23.632C21.2184 23.4758 21.2499 23.3196 21.2815 23.1635C21.3034 23.0539 21.3253 22.9442 21.3472 22.8346C21.501 22.0671 21.6631 21.3021 21.8296 20.5379C21.9411 20.0241 22.0421 19.5091 22.1354 18.9907C22.2062 18.6044 22.2993 18.2289 22.399 17.8508C22.4733 17.553 22.5371 17.2536 22.5978 16.9521C22.6085 16.9004 22.6192 16.8487 22.6302 16.7955C22.6857 16.5141 22.7374 16.2477 22.7043 15.9589C22.6005 15.7734 22.6005 15.7734 22.4609 15.6079C22.2174 15.3025 22.2174 15.3025 22.2174 15Z" fill="#030303"/>
<path d="M18.7712 18.004C18.8424 18.0027 18.9135 18.0014 18.9868 18.0001C19.5889 17.9973 20.1296 18.069 20.6104 18.4549C20.9428 18.821 21.0072 19.0696 20.9994 19.5544C20.9469 20.4228 20.9469 20.4228 20.7987 20.5697C20.6496 20.5752 20.5024 20.5769 20.3533 20.5758C20.2866 20.5757 20.2866 20.5757 20.2185 20.5756C20.076 20.5752 19.9334 20.5744 19.7908 20.5736C19.6944 20.5733 19.5979 20.573 19.5015 20.5728C19.2646 20.5722 19.0277 20.5709 18.7908 20.5697C18.8115 20.2208 18.8323 19.8719 18.8536 19.5123C18.6723 19.4225 18.5526 19.4267 18.3516 19.4501C17.8915 19.779 17.824 20.3938 17.71 20.9133C17.6979 20.9673 17.6857 21.0213 17.6732 21.0769C17.635 21.2473 17.5972 21.4178 17.5595 21.5883C17.5212 21.7601 17.4828 21.9319 17.4444 22.1037C17.4206 22.21 17.3969 22.3164 17.3734 22.4229C17.3301 22.6172 17.2858 22.8066 17.2222 22.9956C17.2118 23.2185 17.2118 23.2185 17.2222 23.431C17.2943 23.516 17.2943 23.516 17.4889 23.5087C17.7465 23.4917 17.8397 23.4664 18.0379 23.3066C18.1001 23.144 18.1432 23.004 18.1791 22.8362C18.2871 22.377 18.2871 22.377 18.3516 22.2492C19.0349 22.2492 19.7182 22.2492 20.4222 22.2492C20.3426 22.9594 20.1681 23.5833 19.6693 24.1152C19.6294 24.158 19.5895 24.2008 19.5484 24.2449C18.8844 24.8924 18.059 24.9971 17.1673 24.9977C17.1082 24.9984 17.0491 24.9992 16.9882 25C16.3589 25.0013 15.8187 24.9231 15.3399 24.4884C14.9598 23.9393 14.9529 23.3138 15.0584 22.6769C15.1451 22.2291 15.247 21.7849 15.3525 21.3411C15.3978 21.1499 15.4413 20.9585 15.4843 20.7668C15.7048 19.8079 16.0089 18.9608 16.8811 18.4146C17.5069 18.0705 18.066 18.0071 18.7712 18.004Z" fill="#020202"/>
<path d="M34.3683 16C34.3253 16.3575 34.2544 16.6975 34.1577 17.0461C34.1326 17.1369 34.1077 17.2278 34.0831 17.3187C34.0667 17.3779 34.0667 17.3779 34.0499 17.4383C34.0053 17.6309 33.978 17.8264 33.9471 18.0212C34.2945 18.042 34.642 18.0629 35 18.0843C34.9606 18.5671 34.8583 19.0061 34.7192 19.4739C34.1285 19.5051 34.1285 19.5051 33.5259 19.537C33.3831 20.1032 33.2409 20.6694 33.0994 21.2357C33.0587 21.3986 33.0178 21.5614 32.9768 21.7243C32.9269 21.9228 32.8776 22.1214 32.8284 22.3201C32.8136 22.3785 32.7987 22.4369 32.7835 22.4971C32.7147 22.7777 32.6584 23.0374 32.6836 23.3267C32.8107 23.4411 33.0074 23.414 33.1793 23.4254C33.2957 23.4334 33.2957 23.4334 33.4143 23.4415C33.4743 23.4453 33.5343 23.4491 33.5961 23.4531C33.5773 23.5286 33.5585 23.6042 33.5391 23.682C33.4384 24.0894 33.3419 24.4976 33.2451 24.9058C32.791 24.965 32.3438 24.9867 31.8851 24.9926C31.7823 24.9962 31.7823 24.9962 31.6773 24.9998C31.1714 25.0052 30.7881 24.9118 30.3672 24.6531C30.0725 24.3733 29.995 24.0677 30.0002 23.6884C30.0324 23.3413 30.1391 23.0078 30.2356 22.6714C30.2808 22.509 30.3259 22.3465 30.3708 22.1839C30.3822 22.1427 30.3936 22.1015 30.4054 22.0591C30.5456 21.5522 30.6685 21.0419 30.7915 20.5315C30.8729 20.1962 30.9584 19.8655 31.0691 19.537C30.8143 19.537 30.5595 19.537 30.297 19.537C30.3385 19.0367 30.4452 18.5719 30.5778 18.0843C31.0295 18.0531 31.0295 18.0531 31.4903 18.0212C31.517 17.8808 31.517 17.8808 31.5443 17.7377C31.5687 17.6151 31.5931 17.4924 31.6175 17.3698C31.6291 17.3081 31.6408 17.2465 31.6528 17.1829C31.6647 17.1237 31.6767 17.0645 31.6891 17.0034C31.7051 16.9216 31.7051 16.9216 31.7214 16.838C31.7778 16.6754 31.8327 16.6087 31.9817 16.5053C32.1526 16.4569 32.3163 16.4175 32.4906 16.3829C32.5914 16.3617 32.6922 16.3404 32.793 16.319C32.8445 16.3082 32.8959 16.2975 32.949 16.2864C33.2836 16.214 33.6146 16.1288 33.9463 16.0464C34.1577 16 34.1577 16 34.3683 16Z" fill="#030303"/>
<path d="M40.913 19C41.6017 19 42.2904 19 43 19C42.8522 19.6987 42.6887 20.3915 42.5038 21.0823C42.3971 21.482 42.2984 21.8828 42.2036 22.2851C42.1508 22.5087 42.0974 22.7321 42.0441 22.9555C42.0246 23.0372 42.0051 23.1189 41.9856 23.2006C41.8888 23.6063 41.7902 24.0116 41.6898 24.4166C41.6797 24.4574 41.6697 24.4983 41.6593 24.5404C41.6462 24.5934 41.6462 24.5934 41.6327 24.6476C41.6062 24.7643 41.586 24.8822 41.5652 25C41.0487 25 40.5322 25 40 25C40.0979 24.445 40.0979 24.445 40.1452 24.2555C40.1562 24.2112 40.1672 24.1669 40.1785 24.1212C40.1904 24.0739 40.2024 24.0265 40.2147 23.9777C40.234 23.9004 40.234 23.9004 40.2536 23.8215C40.2992 23.6389 40.3453 23.4565 40.3913 23.274C40.4102 23.1989 40.4291 23.1238 40.4481 23.0488C40.6275 22.3373 40.8075 21.6259 40.9893 20.9149C41.2054 20.231 41.2054 20.231 41.2609 19.5342C41.1868 19.4319 41.1868 19.4319 41.087 19.3442C40.9891 19.2527 40.9891 19.2527 40.913 19.1644C40.913 19.1101 40.913 19.0559 40.913 19Z" fill="#030303"/>
<path d="M28.2327 18C29.0292 18 29.8258 18 30.6465 18C30.6022 18.4164 30.5545 18.7947 30.452 19.196C30.4334 19.2709 30.4334 19.2709 30.4145 19.3473C30.3744 19.5086 30.3337 19.6698 30.293 19.831C30.2649 19.944 30.2367 20.0569 30.2086 20.1699C30.152 20.3975 30.0951 20.625 30.038 20.8525C29.9651 21.1429 29.8926 21.4334 29.8205 21.7241C29.7999 21.8071 29.7793 21.8901 29.7581 21.9757C29.7383 22.0553 29.7186 22.135 29.6982 22.217C29.6788 22.2951 29.6594 22.3732 29.6394 22.4537C29.5175 22.9445 29.3958 23.4353 29.2758 23.9265C29.2618 23.9833 29.2477 24.0401 29.2333 24.0986C29.2205 24.1513 29.2076 24.2041 29.1944 24.2584C29.1834 24.3034 29.1724 24.3484 29.1611 24.3948C29.119 24.5951 29.091 24.7978 29.0603 25C28.2637 25 27.4672 25 26.6465 25C26.7241 24.271 26.7241 24.271 26.7957 23.9883C26.8197 23.8924 26.8197 23.8924 26.8441 23.7946C26.8614 23.7271 26.8787 23.6597 26.8965 23.5903C26.9146 23.5179 26.9327 23.4456 26.9514 23.3711C27.0103 23.1362 27.0698 22.9014 27.1292 22.6667C27.2115 22.34 27.2934 22.0132 27.3749 21.6863C27.3953 21.6048 27.4156 21.5233 27.4366 21.4392C27.5945 20.8021 27.7393 20.163 27.8787 19.5221C27.9896 19.0133 28.1114 18.5068 28.2327 18Z" fill="#030303"/>
<path d="M34.1707 24C34.4444 24 34.718 24 35 24C34.968 24.2388 34.9336 24.4704 34.8872 24.7045C34.8681 24.802 34.849 24.8995 34.8293 25C34.5556 25 34.282 25 34 25C34.015 24.8696 34.0302 24.7457 34.0526 24.6179C34.0579 24.5875 34.0632 24.5572 34.0687 24.5259C34.0742 24.4949 34.0797 24.4638 34.0854 24.4318C34.0909 24.4003 34.0964 24.3688 34.102 24.3363C34.1431 24.1031 34.1431 24.1031 34.1707 24Z" fill="#070707"/>
<path d="M28 15C28.99 15 29.98 15 31 15C30.9005 15.668 30.7924 16.3344 30.6809 17C29.9436 17 29.2064 17 28.4468 17C28.4889 16.67 28.5311 16.34 28.5745 16C28.4756 15.7329 28.4756 15.7329 28.2952 15.558C28 15.2252 28 15.2252 28 15Z" fill="#080808"/>
<path fill-rule="evenodd" clip-rule="evenodd" d="M9.67464 18.6151L9.54113 18.4411L9.42902 18.1909H11.9298L11.9894 18.6228L12.0919 18.5483C12.6889 18.1239 13.229 17.9337 13.9587 18.0206C14.2843 18.0862 14.5632 18.245 14.7879 18.4994C14.9407 18.8007 15.0011 19.0682 15 19.4055L14.9995 19.5473C14.9802 20.2143 14.8241 20.8681 14.6696 21.515C14.6493 21.5998 14.6291 21.6845 14.6092 21.7691L14.562 21.9733C14.0573 24.1424 14.0573 24.1424 13.1095 24.765C12.6645 25.0349 12.1337 25.0198 11.6321 24.9771C11.3096 24.8828 11.0998 24.7163 10.9176 24.4218L10.858 24.2368C10.8239 24.3677 10.7906 24.4988 10.7576 24.6301L10.7212 24.7606C10.6457 25.0487 10.6147 25.3064 10.6152 25.6053C10.6002 26.0557 10.572 26.4468 10.3222 26.8278C9.81961 27.2832 8.68249 28 8 28C8.0643 27.4222 8.19234 26.8661 8.326 26.3022C8.4537 25.7607 8.57094 25.2173 8.68474 24.6725C8.91052 23.5951 9.14126 22.5197 9.40297 21.451L9.44369 21.2843C9.51087 21.0093 9.57853 20.7345 9.64703 20.4599C9.78198 20.0267 9.84764 19.8159 9.86595 19.6007C9.88331 19.3968 9.85812 19.189 9.80907 18.7842L9.67464 18.6151ZM12.5685 19.741L12.4274 19.7459C12.2731 19.749 12.1826 19.7512 12.0441 19.823L12.0293 19.8378L12.0151 19.8523C11.9495 19.9187 11.8979 19.9727 11.8539 20.0326C11.6981 20.2444 11.6362 20.5303 11.3827 21.6998C11.3504 21.8494 11.3181 21.999 11.2851 22.1485C11.2632 22.2476 11.2415 22.3467 11.22 22.4459L11.1893 22.5885C11.119 22.9038 11.0752 23.1992 11.0914 23.5245C11.1194 23.6 11.1334 23.6376 11.1559 23.6685C11.1782 23.6992 11.2089 23.7233 11.27 23.7713C11.5096 23.8126 11.7244 23.809 11.9473 23.7057C12.1263 23.4846 12.2067 23.2164 12.2776 22.9413C12.3508 22.5936 12.4252 22.2466 12.5123 21.9023L12.5688 21.6841C12.6071 21.5354 12.6456 21.3867 12.6841 21.238C12.7389 21.0322 12.7937 20.8191 12.8432 20.6119C12.8974 20.3413 12.9516 20.0714 12.8053 19.8239C12.7883 19.8139 12.7738 19.8054 12.7613 19.7982C12.7538 19.794 12.747 19.7902 12.7406 19.7868C12.732 19.7822 12.7242 19.7783 12.7166 19.7748C12.7121 19.7729 12.7037 19.7694 12.6992 19.7677C12.6688 19.7566 12.6362 19.7515 12.5685 19.741Z" fill="#020202"/>
<path fill-rule="evenodd" clip-rule="evenodd" d="M37.4762 19H40V25H38.3333L38.3304 24.5991L38.329 24.4739L38.3287 24.3737L38.3279 24.2719L38.3287 24.2573C38.3295 24.2432 38.3302 24.2311 38.3311 24.2199C38.3317 24.2118 38.3324 24.2042 38.3332 24.1966C38.3383 24.151 38.3486 24.1059 38.381 23.9655H36.8571L36.8095 24.1724C36.779 24.2403 36.7461 24.3074 36.7111 24.3737L36.6588 24.4739L36.5923 24.5991L36.381 25H35C35.044 24.809 35.1127 24.6612 35.2109 24.4895L35.2609 24.4008C35.3146 24.3056 35.3686 24.2106 35.4226 24.1155L35.5897 23.8193L35.7009 23.6222C35.8708 23.3213 36.0373 23.0191 36.2023 22.7162C36.3666 22.4159 36.538 22.1186 36.7097 21.8214C36.7905 21.6816 36.8709 21.5416 36.9514 21.4017L36.9749 21.3609L37.0838 21.1716L37.1385 21.0765L37.3584 20.6945L37.4254 20.5776L37.4651 20.5081C37.5486 20.362 37.6336 20.2169 37.7232 20.0735L37.7719 19.9939C37.8152 19.9233 37.8595 19.8531 37.9037 19.783C37.9356 19.7221 37.9512 19.6924 37.9524 19.6624C37.9535 19.6339 37.9418 19.605 37.9189 19.5488C37.8461 19.4384 37.7613 19.3535 37.6607 19.2612C37.5324 19.1431 37.4933 19.1072 37.4814 19.0655C37.4762 19.0472 37.4762 19.0278 37.4762 19ZM38.5714 20.5385H38.5233C38.4078 20.766 38.2966 20.9949 38.1856 21.2241L37.9965 21.6147L37.9575 21.6952C37.7746 22.0726 37.5905 22.4495 37.4063 22.8264L37.3214 23H38.3791C38.4099 22.667 38.4381 22.334 38.4632 22.0007L38.4816 21.7545C38.512 21.3491 38.5422 20.9438 38.5714 20.5385Z" fill="#020202"/>
</svg>
